<?xml version="1.0" standalone="no"?>
<!DOCTYPE svg PUBLIC "-//W3C//DTD SVG 20010904//EN"
 "http://www.w3.org/TR/2001/REC-SVG-20010904/DTD/svg10.dtd">
<svg version="1.0" xmlns="http://www.w3.org/2000/svg"
 width="772.000000pt" height="382.000000pt" viewBox="0 0 772.000000 382.000000"
 preserveAspectRatio="xMidYMid meet">
<metadata>
Created by potrace 1.16, written by Peter Selinger 2001-2019
</metadata>
<g transform="translate(0.000000,382.000000) scale(0.100000,-0.100000)"
fill="#000000" stroke="none">
<path d="M0 1910 l0 -1910 3860 0 3860 0 0 1910 0 1910 -3860 0 -3860 0 0
-1910z m4963 1466 c7 -8 50 -17 98 -21 97 -9 129 -18 129 -40 0 -24 43 -40 69
-25 19 10 25 8 42 -14 25 -32 71 -34 99 -6 11 11 24 20 30 20 13 0 28 -32 23
-48 -9 -24 28 -52 67 -52 30 0 39 -5 49 -27 20 -45 55 -93 68 -93 6 0 15 -5
19 -12 4 -7 3 -8 -4 -4 -20 12 -14 -19 7 -38 17 -16 22 -15 80 24 84 56 139
80 181 79 l35 -1 -35 -7 c-39 -8 -74 -25 -167 -80 -47 -27 -63 -42 -63 -58 0
-18 6 -23 28 -24 25 -2 25 -2 3 -6 -19 -4 -22 -9 -17 -31 3 -15 9 -42 12 -59
4 -18 11 -33 16 -33 5 0 31 11 58 25 29 15 51 21 55 15 3 -6 -1 -10 -10 -10
-21 0 -105 -49 -105 -61 0 -24 31 -79 44 -79 15 0 47 40 60 74 3 10 9 16 12
13 10 -10 -7 -48 -39 -84 l-32 -36 0 -231 c-1 -127 -5 -263 -9 -302 l-9 -72
-76 -4 c-164 -10 -251 -103 -251 -267 1 -115 56 -192 165 -227 27 -9 51 -18
53 -19 3 -3 -38 -134 -78 -250 -42 -120 -131 -301 -189 -383 -181 -254 -432
-403 -676 -401 -68 0 -249 24 -220 28 20 4 -121 53 -155 55 -19 1 -62 6 -95
10 -46 6 -57 5 -45 -4 13 -10 13 -11 -1 -7 -9 3 -38 9 -65 13 -39 6 -45 9 -29
16 14 5 7 6 -20 3 -31 -4 -36 -3 -25 5 11 9 7 10 -19 5 -25 -6 -32 -4 -26 5 6
10 1 11 -21 6 -17 -4 -24 -3 -16 2 9 6 6 12 -14 21 -20 9 -29 9 -41 0 -11 -10
-14 -9 -11 2 2 8 -5 14 -17 14 -52 1 -200 127 -251 213 -12 22 -25 32 -38 30
-20 -3 -25 -10 -52 -71 -19 -42 -56 -72 -78 -64 -10 4 -2 18 30 51 24 26 44
55 44 65 0 10 9 26 20 36 20 18 20 18 -1 29 -11 6 -28 23 -37 38 -15 25 -15
28 2 47 18 19 17 24 -9 136 -24 104 -27 138 -28 313 -2 181 0 203 21 265 12
37 20 72 18 76 -3 4 4 37 14 72 11 35 20 88 20 118 0 54 27 161 41 161 4 0 10
15 14 33 15 70 48 166 82 235 19 41 36 85 36 98 0 13 3 24 7 24 12 0 29 47 24
67 -3 10 4 42 15 71 11 29 17 52 13 52 -4 0 -2 4 4 8 6 4 21 30 33 57 13 28
28 61 34 75 7 14 18 29 24 33 7 4 13 17 13 27 0 11 4 20 8 20 5 0 17 17 28 38
32 63 148 169 238 217 46 25 90 45 100 45 9 0 27 7 40 15 49 32 125 54 156 45
20 -6 45 -4 73 4 61 18 402 20 420 2z m783 -1367 c-3 -17 -6 -44 -6 -60 l0
-29 -74 0 c-41 0 -78 4 -81 10 -11 18 25 70 63 89 20 11 52 20 71 21 32 0 33
-1 27 -31z m-31 -171 c-10 -70 -48 -218 -55 -218 -10 0 -56 52 -70 79 -15 29
-32 145 -24 165 5 13 23 16 81 16 l75 0 -7 -42z m-3661 -874 c17 -7 10 -34
-10 -34 -26 0 -182 -100 -238 -152 -46 -44 -56 -60 -56 -87 0 -29 -2 -32 -15
-21 -55 45 37 150 224 257 42 24 76 43 77 43 1 0 9 -3 18 -6z"/>
<path d="M4983 2912 c-31 -42 -77 -138 -101 -212 -46 -142 -53 -167 -59 -221
l-6 -56 33 -11 c18 -7 74 -15 125 -18 88 -6 93 -6 104 14 12 22 9 264 -5 332
-11 60 -45 167 -57 185 -11 14 -15 13 -34 -13z"/>
<path d="M4680 2500 c-11 -21 -20 -57 -20 -79 0 -22 -4 -41 -8 -43 -11 -4 -82
-252 -82 -284 0 -27 3 -28 31 -14 15 9 21 7 26 -7 3 -10 15 -29 26 -43 l20
-25 -6 24 c-3 14 -2 30 2 35 5 6 21 67 35 136 39 183 38 178 26 158 -6 -10
-16 -18 -21 -18 -6 0 -7 5 -4 10 3 6 1 10 -6 10 -7 0 -9 10 -5 30 4 20 2 30
-7 30 -8 0 -7 4 3 10 8 5 22 10 30 10 13 0 13 -1 0 -10 -8 -5 -11 -12 -7 -16
22 -22 32 52 11 83 -11 18 -12 23 -3 17 12 -6 12 -5 0 9 -7 9 -15 17 -17 17
-2 0 -13 -18 -24 -40z"/>
<path d="M4535 2508 c-21 -59 -158 -577 -204 -774 l-29 -124 29 -60 c20 -42
41 -67 70 -87 l42 -27 29 34 c60 71 111 181 128 275 4 22 9 47 12 55 3 8 3 12
1 8 -8 -14 -27 -8 -55 16 -24 21 -26 28 -18 57 11 37 37 69 57 69 19 0 33 -44
27 -82 -4 -31 -4 -32 7 -8 13 30 4 105 -16 137 -16 24 -49 31 -60 13 -8 -13
-41 -134 -49 -182 -4 -21 -13 -38 -20 -38 -14 0 -46 -91 -47 -136 0 -16 -4
-38 -9 -49 -16 -40 -20 8 -6 70 8 33 22 94 31 135 9 41 28 108 41 149 38 113
86 320 88 378 2 36 -2 54 -11 57 -7 3 -13 17 -13 31 0 14 -5 25 -11 25 -7 0
-9 12 -5 35 7 33 0 49 -9 23z"/>
<path d="M4795 2389 c-3 -8 -16 -68 -30 -134 -14 -66 -37 -173 -51 -237 -45
-214 -126 -411 -214 -523 -76 -98 -75 -93 -74 -260 1 -146 14 -235 35 -235 17
0 91 55 151 111 72 69 179 225 240 351 26 54 48 102 48 106 0 4 4 13 8 20 7
10 19 8 58 -10 38 -17 67 -22 129 -22 165 2 265 84 265 219 0 121 -71 197
-248 266 -57 22 -79 35 -73 43 11 13 41 165 41 206 0 28 1 28 38 18 54 -15
105 -60 131 -117 24 -50 47 -69 63 -53 5 5 8 49 6 98 -3 75 -6 89 -20 92 -11
2 -18 -3 -18 -12 0 -21 -9 -20 -72 9 -41 19 -69 25 -125 25 -40 0 -73 4 -73 8
0 4 -35 13 -77 19 -43 7 -90 15 -105 19 -19 4 -29 2 -33 -7z m392 -575 c38
-25 56 -61 50 -100 -15 -93 -97 -141 -193 -115 -50 13 -137 74 -113 79 10 2
23 26 34 65 9 34 24 83 32 109 l14 47 77 -35 c42 -19 87 -42 99 -50z"/>
</g>
</svg>
